<mxfile host="Electron" agent="Mozilla/5.0 (Windows NT 10.0; Win64; x64) AppleWebKit/537.36 (KHTML, like Gecko) draw.io/24.7.17 Chrome/128.0.6613.36 Electron/32.0.1 Safari/537.36" version="24.7.17">
  <diagram name="Pagina-1" id="NMaCCovIht0jq9i36ubB">
    <mxGraphModel dx="516" dy="384" grid="1" gridSize="10" guides="1" tooltips="1" connect="1" arrows="1" fold="1" page="1" pageScale="1" pageWidth="827" pageHeight="1169" math="1" shadow="0">
      <root>
        <mxCell id="0" />
        <mxCell id="1" parent="0" />
        <mxCell id="kZ90n8W1vasebJ8AtvQ2-3" style="edgeStyle=orthogonalEdgeStyle;rounded=0;orthogonalLoop=1;jettySize=auto;html=1;" edge="1" parent="1" source="kZ90n8W1vasebJ8AtvQ2-2">
          <mxGeometry relative="1" as="geometry">
            <mxPoint x="480" y="380" as="targetPoint" />
          </mxGeometry>
        </mxCell>
        <mxCell id="kZ90n8W1vasebJ8AtvQ2-2" value="\(C(s)\)" style="rounded=0;whiteSpace=wrap;html=1;fillColor=none;" vertex="1" parent="1">
          <mxGeometry x="400" y="360" width="41" height="40" as="geometry" />
        </mxCell>
        <mxCell id="kZ90n8W1vasebJ8AtvQ2-4" style="edgeStyle=orthogonalEdgeStyle;rounded=0;orthogonalLoop=1;jettySize=auto;html=1;" edge="1" parent="1">
          <mxGeometry relative="1" as="geometry">
            <mxPoint x="337.5" y="379.83" as="targetPoint" />
            <mxPoint x="287.5" y="379.83" as="sourcePoint" />
          </mxGeometry>
        </mxCell>
        <mxCell id="kZ90n8W1vasebJ8AtvQ2-5" value="\(\omega_d\)" style="edgeLabel;html=1;align=center;verticalAlign=middle;resizable=0;points=[];" vertex="1" connectable="0" parent="kZ90n8W1vasebJ8AtvQ2-4">
          <mxGeometry x="-0.16" y="1" relative="1" as="geometry">
            <mxPoint x="-8" y="-15" as="offset" />
          </mxGeometry>
        </mxCell>
        <mxCell id="kZ90n8W1vasebJ8AtvQ2-13" style="edgeStyle=orthogonalEdgeStyle;rounded=0;orthogonalLoop=1;jettySize=auto;html=1;" edge="1" parent="1" source="kZ90n8W1vasebJ8AtvQ2-7">
          <mxGeometry relative="1" as="geometry">
            <mxPoint x="570" y="380" as="targetPoint" />
          </mxGeometry>
        </mxCell>
        <mxCell id="kZ90n8W1vasebJ8AtvQ2-7" value="\(P(s)\)" style="rounded=0;whiteSpace=wrap;html=1;fillColor=none;" vertex="1" parent="1">
          <mxGeometry x="480" y="360" width="41" height="40" as="geometry" />
        </mxCell>
        <mxCell id="kZ90n8W1vasebJ8AtvQ2-8" value="" style="ellipse;whiteSpace=wrap;html=1;aspect=fixed;fillColor=none;" vertex="1" parent="1">
          <mxGeometry x="337.5" y="373.75" width="12.5" height="12.5" as="geometry" />
        </mxCell>
        <mxCell id="kZ90n8W1vasebJ8AtvQ2-9" style="edgeStyle=orthogonalEdgeStyle;rounded=0;orthogonalLoop=1;jettySize=auto;html=1;" edge="1" parent="1">
          <mxGeometry relative="1" as="geometry">
            <mxPoint x="400" y="379.8" as="targetPoint" />
            <mxPoint x="350" y="379.8" as="sourcePoint" />
          </mxGeometry>
        </mxCell>
        <mxCell id="kZ90n8W1vasebJ8AtvQ2-11" value="+" style="text;html=1;align=center;verticalAlign=middle;whiteSpace=wrap;rounded=0;fontSize=22;" vertex="1" parent="1">
          <mxGeometry x="318.5" y="353.75" width="20" height="20" as="geometry" />
        </mxCell>
        <mxCell id="kZ90n8W1vasebJ8AtvQ2-12" value="-" style="text;html=1;align=center;verticalAlign=middle;whiteSpace=wrap;rounded=0;fontSize=22;" vertex="1" parent="1">
          <mxGeometry x="350" y="386.25" width="20" height="20" as="geometry" />
        </mxCell>
        <mxCell id="kZ90n8W1vasebJ8AtvQ2-14" value="\(\omega\)" style="edgeLabel;html=1;align=center;verticalAlign=middle;resizable=0;points=[];" vertex="1" connectable="0" parent="1">
          <mxGeometry x="318.5" y="379.8299999999999" as="geometry">
            <mxPoint x="231" y="-12" as="offset" />
          </mxGeometry>
        </mxCell>
        <mxCell id="kZ90n8W1vasebJ8AtvQ2-15" value="" style="endArrow=classic;html=1;rounded=0;entryX=0.5;entryY=1;entryDx=0;entryDy=0;" edge="1" parent="1" target="kZ90n8W1vasebJ8AtvQ2-8">
          <mxGeometry width="50" height="50" relative="1" as="geometry">
            <mxPoint x="540" y="380" as="sourcePoint" />
            <mxPoint x="471.0000000000001" y="440" as="targetPoint" />
            <Array as="points">
              <mxPoint x="540" y="440" />
              <mxPoint x="344" y="440" />
            </Array>
          </mxGeometry>
        </mxCell>
        <mxCell id="kZ90n8W1vasebJ8AtvQ2-18" value="\(\tau\)" style="edgeLabel;html=1;align=center;verticalAlign=middle;resizable=0;points=[];" vertex="1" connectable="0" parent="1">
          <mxGeometry x="460" y="363.74999999999994" as="geometry" />
        </mxCell>
        <mxCell id="kZ90n8W1vasebJ8AtvQ2-19" value="riferimento&amp;nbsp;&lt;div&gt;desiderato&lt;/div&gt;" style="text;html=1;align=center;verticalAlign=middle;whiteSpace=wrap;rounded=0;" vertex="1" parent="1">
          <mxGeometry x="220" y="363.75" width="60" height="30" as="geometry" />
        </mxCell>
        <mxCell id="kZ90n8W1vasebJ8AtvQ2-20" value="\(e\)" style="edgeLabel;html=1;align=center;verticalAlign=middle;resizable=0;points=[];" vertex="1" connectable="0" parent="1">
          <mxGeometry x="310.45238095238096" y="373.74999999999994" as="geometry">
            <mxPoint x="61" y="-7" as="offset" />
          </mxGeometry>
        </mxCell>
      </root>
    </mxGraphModel>
  </diagram>
</mxfile>
